<svg id="图层_1" data-name="图层 1" xmlns="http://www.w3.org/2000/svg" xmlns:xlink="http://www.w3.org/1999/xlink" viewBox="0 0 565.51 688.14"><defs><style>.cls-1{fill:url(#未命名的渐变_40);}.cls-2{fill:url(#未命名的渐变_41);}.cls-3{fill:url(#未命名的渐变_39);}.cls-4{fill:url(#未命名的渐变_38);}</style><linearGradient id="未命名的渐变_40" x1="118.61" y1="411.15" x2="543.81" y2="411.15" gradientTransform="matrix(0.71, -0.71, -0.71, -0.71, 407.44, 837.02)" gradientUnits="userSpaceOnUse"><stop offset="0" stop-color="#3f51b5"/><stop offset="1" stop-color="#1890ff"/></linearGradient><linearGradient id="未命名的渐变_41" x1="216.49" y1="451.27" x2="216.49" y2="127.96" xlink:href="#未命名的渐变_40"/><linearGradient id="未命名的渐变_39" x1="812.78" y1="323.19" x2="1237.98" y2="323.19" gradientTransform="matrix(-0.71, 0.71, 0.71, 0.71, 996, -412.56)" xlink:href="#未命名的渐变_40"/><linearGradient id="未命名的渐变_38" x1="910.65" y1="363.31" x2="910.65" y2="40" gradientTransform="matrix(-0.71, 0.71, 0.71, 0.71, 996, -412.56)" xlink:href="#未命名的渐变_40"/></defs><title>logo</title><path class="cls-1" d="M436.91,97.42a51,51,0,0,0-72.16,0L172.33,289.85a101.93,101.93,0,0,0,0,144.31L301,562.83a182.13,182.13,0,0,1,0-257.56q4.88-4.86,10-9.28c1.79-2.11,3.67-4.15,5.66-6.14L436.91,169.59A51,51,0,0,0,436.91,97.42Z" transform="translate(-142.44 -82.48)"/><path class="cls-2" d="M311,296q-5.12,4.42-10,9.28a182.13,182.13,0,0,0,0,257.56l63.76,63.76a51,51,0,0,0,72.16-72.16L316.65,434.16A102,102,0,0,1,311,296Z" transform="translate(-142.44 -82.48)"/><path class="cls-3" d="M413.48,755.68a51,51,0,0,0,72.16,0L678.06,563.26a102,102,0,0,0,0-144.32L549.4,290.28a182.13,182.13,0,0,1,0,257.56q-4.86,4.86-10,9.28c-1.78,2.11-3.67,4.15-5.66,6.14L413.49,683.52A51,51,0,0,0,413.48,755.68Z" transform="translate(-142.44 -82.48)"/><path class="cls-4" d="M539.41,557.12q5.13-4.43,10-9.28a182.13,182.13,0,0,0,0-257.56l-63.76-63.76a51,51,0,0,0-72.16,72.16L533.75,418.94A102.06,102.06,0,0,1,539.41,557.12Z" transform="translate(-142.44 -82.48)"/></svg>